<?xml version="1.0" encoding="utf-8"?>
<!-- Generator: Adobe Illustrator 16.0.0, SVG Export Plug-In . SVG Version: 6.00 Build 0)  -->
<!DOCTYPE svg PUBLIC "-//W3C//DTD SVG 1.1//EN" "http://www.w3.org/Graphics/SVG/1.1/DTD/svg11.dtd">
<svg version="1.1" id="Layer_1" xmlns="http://www.w3.org/2000/svg" xmlns:xlink="http://www.w3.org/1999/xlink" x="0px" y="0px"
	 width="421.621px" height="128.508px" viewBox="0 0 421.621 128.508" style="enable-background:new 0 0 421.621 128.508;"
	 xml:space="preserve">
<style type="text/css">
<![CDATA[
	.st0{fill:#FFFFFF;}
]]>
</style>
<g>
	<g>
		<path class="st0" d="M19.688,68.861l17.432-29.189h2.256L20.609,70.536v18.901h-1.846V70.536L0,39.671h2.461L19.688,68.861z"/>
		<path class="st0" d="M41.527,70.228c0-3.531,0.678-6.704,2.033-9.52c1.355-2.813,3.27-5.007,5.742-6.579s5.27-2.358,8.393-2.358
			c3.098,0,5.879,0.764,8.34,2.29c2.461,1.527,4.379,3.691,5.758,6.494s2.08,5.959,2.104,9.468v1.641
			c0,3.555-0.674,6.733-2.018,9.536s-3.252,4.99-5.725,6.563s-5.27,2.358-8.391,2.358c-3.123,0-5.92-0.774-8.393-2.324
			c-2.473-1.549-4.391-3.72-5.758-6.512c-1.367-2.79-2.063-5.93-2.086-9.416V70.228z M43.373,71.664
			c0,3.076,0.609,5.896,1.828,8.459c1.219,2.564,2.918,4.563,5.094,5.999s4.666,2.153,7.469,2.153c4.215,0,7.65-1.583,10.305-4.751
			c2.654-3.167,3.982-7.246,3.982-12.236v-1.06c0-3.03-0.615-5.833-1.846-8.408c-1.23-2.574-2.936-4.585-5.111-6.033
			c-2.176-1.446-4.643-2.17-7.398-2.17c-4.217,0-7.656,1.606-10.322,4.819s-4,7.258-4,12.134V71.664z"/>
		<path class="st0" d="M107.631,89.437v-5.981c-1.094,2.051-2.689,3.675-4.785,4.87c-2.096,1.197-4.75,1.795-7.963,1.795
			c-4.033,0-7.059-1.18-9.074-3.537c-2.018-2.359-3.049-5.794-3.094-10.306V52.455h1.846v23.892c0.045,3.92,0.934,6.888,2.666,8.903
			c1.73,2.018,4.26,3.025,7.588,3.025c3.531,0,6.402-0.831,8.613-2.495c2.209-1.663,3.611-4.102,4.203-7.314V52.455h1.881v36.982
			H107.631z"/>
		<path class="st0" d="M155.244,41.517h-18.115v47.92h-1.846v-47.92h-18.115v-1.846h38.076V41.517z"/>
		<path class="st0" d="M184.535,89.437v-5.981c-1.094,2.051-2.689,3.675-4.785,4.87c-2.096,1.197-4.75,1.795-7.963,1.795
			c-4.033,0-7.059-1.18-9.074-3.537c-2.018-2.359-3.049-5.794-3.094-10.306V52.455h1.846v23.892c0.045,3.92,0.934,6.888,2.666,8.903
			c1.73,2.018,4.26,3.025,7.588,3.025c3.531,0,6.402-0.831,8.613-2.495c2.209-1.663,3.611-4.102,4.203-7.314V52.455h1.881v36.982
			H184.535z"/>
		<path class="st0" d="M226.338,71.288c0,5.766-1.242,10.346-3.727,13.74c-2.484,3.396-5.867,5.093-10.15,5.093
			c-2.781,0-5.264-0.576-7.451-1.727c-2.188-1.149-3.908-2.751-5.162-4.802v5.845h-1.846v-52.5h1.846v22.251
			c1.299-2.438,3.014-4.283,5.145-5.537c2.131-1.253,4.598-1.88,7.4-1.88c4.328,0,7.734,1.658,10.219,4.973
			c2.484,3.316,3.727,7.971,3.727,13.963V71.288z M224.424,70.57c0-5.309-1.055-9.462-3.162-12.459
			c-2.107-2.995-5.053-4.494-8.836-4.494c-3.1,0-5.725,0.798-7.879,2.393c-2.152,1.596-3.719,3.965-4.699,7.109v16.953
			c0.98,2.621,2.547,4.644,4.699,6.066c2.154,1.425,4.803,2.137,7.947,2.137c3.805,0,6.744-1.515,8.818-4.546
			C223.387,80.699,224.424,76.312,224.424,70.57z"/>
		<path class="st0" d="M249.682,90.121c-2.984,0-5.725-0.803-8.219-2.41c-2.496-1.605-4.451-3.811-5.863-6.613
			s-2.119-5.913-2.119-9.331v-1.538c0-3.418,0.684-6.551,2.051-9.399c1.367-2.848,3.248-5.069,5.641-6.665
			c2.393-1.595,5-2.393,7.826-2.393c4.125,0,7.496,1.47,10.117,4.409s3.932,6.802,3.932,11.587v1.948h-27.721v2.013
			c0,3.003,0.633,5.783,1.898,8.342c1.264,2.559,3.008,4.566,5.229,6.021c2.223,1.456,4.631,2.184,7.229,2.184
			c2.484,0,4.598-0.413,6.342-1.239c1.742-0.826,3.285-2.1,4.631-3.819l1.299,0.923C259.195,88.127,255.105,90.121,249.682,90.121z
			 M248.998,53.617c-3.6,0-6.654,1.339-9.16,4.016c-2.506,2.679-3.977,6.091-4.408,10.237h25.771v-0.444
			c0-2.506-0.529-4.836-1.59-6.99c-1.059-2.152-2.518-3.828-4.375-5.023C253.379,54.214,251.299,53.617,248.998,53.617z"/>
	</g>
	<g>
		<g>
			<path class="st0" d="M318.467,89.437h-1.846V64.612c-0.023-3.711-0.838-6.471-2.443-8.28c-1.607-1.81-4.164-2.715-7.674-2.715
				c-4.057,0-7.371,1.787-9.945,5.361c-1.527,2.14-2.541,4.508-3.043,7.103v23.356h-1.879V52.455h1.879v8.75
				c1.254-3.008,3.043-5.332,5.367-6.973s4.898-2.461,7.725-2.461c3.098,0,5.633,0.684,7.604,2.051s3.266,3.601,3.881,6.699
				c1.094-2.666,2.871-4.79,5.332-6.375c2.461-1.583,5.217-2.375,8.271-2.375c3.986,0,6.955,1.128,8.902,3.384
				c1.949,2.256,2.934,5.64,2.957,10.151v24.131h-1.846V65.466c0-4.053-0.814-7.052-2.443-8.998s-4.188-2.896-7.674-2.852
				c-4.488,0.068-8.043,1.855-10.664,5.361c-1.504,2.025-2.324,3.983-2.461,5.873V89.437z"/>
			<path class="st0" d="M383.033,71.288c0,5.766-1.242,10.346-3.727,13.74c-2.484,3.396-5.867,5.093-10.15,5.093
				c-2.803,0-5.299-0.57-7.486-1.709s-3.896-2.711-5.127-4.717v19.961h-1.846V52.455h1.846v6.597c1.275-2.347,2.996-4.146,5.162-5.4
				c2.164-1.253,4.625-1.88,7.383-1.88c4.328,0,7.734,1.658,10.219,4.973c2.484,3.316,3.727,7.971,3.727,13.963V71.288z
				 M381.152,70.57c0-5.309-1.055-9.462-3.162-12.459c-2.107-2.995-5.064-4.494-8.869-4.494c-3.1,0-5.73,0.803-7.895,2.41
				c-2.166,1.605-3.727,3.913-4.684,6.921v17.295c0.957,2.553,2.523,4.528,4.699,5.931c2.176,1.4,4.826,2.102,7.947,2.102
				c3.783,0,6.723-1.504,8.818-4.512S381.152,76.358,381.152,70.57z"/>
			<path class="st0" d="M401.455,63.119h4.17c3.896-0.068,7.047-1.104,9.451-3.11c2.404-2.005,3.605-4.557,3.605-7.656
				c0-3.531-1.076-6.334-3.229-8.408c-2.154-2.073-5.145-3.11-8.973-3.11c-3.738,0-6.814,1.094-9.229,3.281
				c-2.416,2.188-3.623,5.059-3.623,8.613h-1.846c0-2.643,0.637-5.013,1.914-7.109c1.275-2.096,3.041-3.726,5.297-4.888
				s4.752-1.743,7.486-1.743c4.307,0,7.725,1.212,10.254,3.636s3.793,5.706,3.793,9.849c0,2.641-0.836,4.996-2.512,7.066
				c-1.674,2.071-3.938,3.539-6.785,4.404c3.258,0.753,5.805,2.167,7.641,4.243c1.832,2.076,2.75,4.757,2.75,8.042
				c0,4.243-1.355,7.619-4.066,10.129c-2.713,2.509-6.301,3.764-10.768,3.764c-3.008,0-5.787-0.651-8.34-1.953
				s-4.477-3.027-5.775-5.175s-1.949-4.626-1.949-7.436h1.846c0,3.656,1.344,6.69,4.033,9.102s6.084,3.616,10.186,3.616
				c4.078,0,7.264-1.057,9.555-3.171c2.289-2.113,3.434-5.033,3.434-8.759c0-3.68-1.225-6.49-3.674-8.433s-6.033-2.925-10.75-2.948
				h-3.896V63.119z"/>
		</g>
	</g>
	
		<rect x="191.079" y="63.284" transform="matrix(0.7071 -0.7071 0.7071 0.7071 36.8614 217.5001)" class="st0" width="179.796" height="1.942"/>
</g>
<g>
</g>
<g>
</g>
<g>
</g>
<g>
</g>
<g>
</g>
<g>
</g>
<g>
</g>
<g>
</g>
<g>
</g>
<g>
</g>
<g>
</g>
<g>
</g>
<g>
</g>
<g>
</g>
<g>
</g>
</svg>
